<?xml version="1.0" encoding="UTF-8"?>
<!DOCTYPE svg PUBLIC "-//W3C//DTD SVG 1.1//EN" "http://www.w3.org/Graphics/SVG/1.1/DTD/svg11.dtd">
<svg xmlns="http://www.w3.org/2000/svg" xmlns:xlink="http://www.w3.org/1999/xlink" version="1.1" width="106px" height="50px" viewBox="-0.5 -0.5 106 50"><defs/><g><rect x="0.64" y="0" width="47.24" height="47.24" rx="7.09" ry="7.09" fill="#f5f5f5" stroke="#666666" stroke-width="2" pointer-events="all"/><ellipse cx="24.27" cy="23.62" rx="2.365" ry="2.3621999999999996" fill="rgb(255, 255, 255)" stroke="rgb(0, 0, 0)" pointer-events="all"/><rect x="56.64" y="0" width="47.24" height="47.24" rx="7.09" ry="7.09" fill="#f5f5f5" stroke="#666666" stroke-width="2" pointer-events="all"/><ellipse cx="80.27" cy="23.62" rx="2.365" ry="2.3621999999999996" fill="rgb(255, 255, 255)" stroke="rgb(0, 0, 0)" pointer-events="all"/><path d="M 8.26 23.62 C 8.26 14.78 15.42 7.62 24.26 7.62 C 33.1 7.62 40.26 14.78 40.26 23.62" fill="none" stroke="rgb(0, 0, 0)" stroke-width="2" stroke-miterlimit="10" pointer-events="all"/><path d="M 64.26 23.62 C 64.26 14.78 71.42 7.62 80.26 7.62 C 89.1 7.62 96.26 14.78 96.26 23.62" fill="none" stroke="rgb(0, 0, 0)" stroke-width="2" stroke-miterlimit="10" pointer-events="all"/><path d="M 8.26 23 L 8.26 25.76" fill="none" stroke="rgb(0, 0, 0)" stroke-width="2" stroke-miterlimit="10" pointer-events="stroke"/><path d="M 8.26 31.76 L 4.26 23.76 L 8.26 25.76 L 12.26 23.76 Z" fill="rgb(0, 0, 0)" stroke="rgb(0, 0, 0)" stroke-width="2" stroke-miterlimit="10" pointer-events="all"/><path d="M 40.26 23 L 40.26 25.76" fill="none" stroke="rgb(0, 0, 0)" stroke-width="2" stroke-miterlimit="10" pointer-events="stroke"/><path d="M 40.26 31.76 L 36.26 23.76 L 40.26 25.76 L 44.26 23.76 Z" fill="rgb(0, 0, 0)" stroke="rgb(0, 0, 0)" stroke-width="2" stroke-miterlimit="10" pointer-events="all"/><path d="M 64.26 23 L 64.26 25.76" fill="none" stroke="rgb(0, 0, 0)" stroke-width="2" stroke-miterlimit="10" pointer-events="stroke"/><path d="M 64.26 31.76 L 60.26 23.76 L 64.26 25.76 L 68.26 23.76 Z" fill="rgb(0, 0, 0)" stroke="rgb(0, 0, 0)" stroke-width="2" stroke-miterlimit="10" pointer-events="all"/><path d="M 96.26 30.26 L 96.26 29.5" fill="none" stroke="rgb(0, 0, 0)" stroke-width="2" stroke-miterlimit="10" pointer-events="stroke"/><path d="M 96.26 23.5 L 100.26 31.5 L 96.26 29.5 L 92.26 31.5 Z" fill="rgb(0, 0, 0)" stroke="rgb(0, 0, 0)" stroke-width="2" stroke-miterlimit="10" pointer-events="all"/></g></svg>